<svg xmlns="http://www.w3.org/2000/svg" height="190.558" width="258.573"><path d="M206.484 71.139c-.882 1.2-2.09 2.846-2.086 3.375.081.433.688.887 1.66 1.223 2.794.965 6.48.435 7.051-.072 2.582-2.733 6.456-13.256 6.007-19.622A6.434 6.434 0 00218 52.572q-4.046-.721-8.193-1.278c5.098 8.325-.079 15.423-3.323 19.845z" fill="#a7a9ac"/><path d="M58.02 107.932a13.925 13.925 0 00-2.333.234c-7.8 1.34-20.051 7.226-21.265 8.937-.282 2.681 6.894 21.242 13.7 30.229.761-.271 1.549-.535 2.35-.805 4.917-1.653 10-3.36 11.642-7.279 2.047-4.883-1.007-25.047-2.918-31.186a4.455 4.455 0 00-1.176-.13zM183.999 147.851c.023-.039.557-1-.686-5.038-3.375-10.957-15.052-30.34-19.526-32.407-2.728-1.263-6.512.052-9.85 1.211-.265.092-.5.163-.763.252 6.262 13.864 13.912 30.238 20.772 44.055 1.676-.871 8.767-5.933 10.053-8.073zM42.833 73.59c-.145-.288-.291-.583-.449-.9-2.1-4.249-5.264-10.655-9.079-10.655h-.076c-6.12.136-8.366.519-16.372 3.973-2.5 1.076-1.951 6.018-1.307 8.884 9.342-2.948 20.132-3.932 27.283-1.302z" fill="#f0f6fc"/><path d="M221.36 53.183a11.525 11.525 0 01.508 2.666c.52 7.35-3.784 18.569-6.763 21.721-.947 1-3.114 1.464-5.37 1.464a15.1 15.1 0 01-4.158-.553c-2.846-.845-3.689-2.366-3.9-3.5-.287-1.574.915-3.212 2.579-5.478 3.433-4.677 8.067-11.038 1.835-18.669a211.358 211.358 0 00-66.248 3.033c-14.989 3.206-26.358 9.685-38.394 16.543-5.9 3.364-12 6.843-18.679 9.994-15.951 7.527-24.246 3.583-37.994-2.954l-1.681-.8c-9.747-4.621-30.016-.034-39.156 6.821a2.187 2.187 0 00-.865 2.005c.232 7.606 20.182 25.927 28.635 32.055a4.071 4.071 0 01.042-1.175c.916-3.626 19.152-10.995 25.906-11.18 2.9-.1 3.864 1.071 4.17 2.05a91.031 91.031 0 012.268 10.854c1.51-.44 2.964-.878 4.278-1.28 2.012-.617 3.75-1.148 5.155-1.5 19.768-4.976 37.425-6.941 62.106-9.372 3.4-.336 7.117-.62 11.469-.886a1146.724 1146.724 0 01-2.716-6.131l-.4-.913.742-.666c7.008-6.291 31.128-15.5 40.405-10.558q6.7 3.573 11.092 14.332a117.559 117.559 0 0014.728-3.462c13.255-4.091 40.076-16.823 44.082-26.572a5.109 5.109 0 00-.186-4.62c-4.13-7.63-25.256-11.703-33.49-13.269z" fill="#f0f6fc"/><path d="M183.843 89.213c-7.482-3.994-29.319 3.937-36.507 9.545 1.412 3.226 3 6.8 4.7 10.581.337-.114.65-.209 1-.329 3.831-1.329 8.169-2.841 11.913-1.108 5.561 2.567 17.628 23.126 21.006 34.1 1.1 3.59 1.237 5.9.414 7.27-1.655 2.758-9.065 7.949-11.191 9.115 7.275 14.524 13.472 25.708 15.848 27.164 8.864-4.188 10.666-10.148 10.687-18.385.067-31.177-2.973-70.007-17.87-77.953zM204.042 146.944c3.321.686 9.787-1.01 12.139-3.188 3.425-3.178 3.607-10.466.523-21.074-.774-2.661-1.906-4.34-3.46-5.13-2.914-1.479-7.353.128-12.056 1.833a220.233 220.233 0 012.853 27.566zM130.551 28.701c5.546 7.318 11.407 15.472 13.777 21.467a208.085 208.085 0 0128.495-3.174c-1.684-1.56-4.221-4.057-8.226-8-4.626-4.553-9.871-9.716-12.241-11.669-17.322-14.27-33.682-27.742-38.241-23.628-3 3.56-6.316 8.447-6.221 9.906.114 1.756 1.382 5.786 3.209 10.808a76.957 76.957 0 018.28-1.459c6.232-.765 7.778 1.273 11.168 5.749zM166.528 37.029c1.283 1.262 2.662 2.62 3.981 3.908a2.975 2.975 0 001.7-1.781c1.056-3.3-2.861-9.659-6.878-14.52-3.433-4.152-9.588-4.183-14.482-2.117 1.068.877 2.141 1.758 3.255 2.676 2.471 2.031 7.534 7.015 12.424 11.834z" fill="#f0f6fc"/><path d="M139.271 51.171c.759-.162 1.532-.3 2.3-.457-2.712-6.474-9.693-15.695-13.216-20.346-3.294-4.348-3.983-5.246-8.632-4.677a75.836 75.836 0 00-7.651 1.33c3.588 9.546 8.664 21.6 11.858 28.864a93.68 93.68 0 0115.341-4.714z" fill="#f0f6fc"/><path d="M147.107 105.044L143.993 98l-8.355 7.93s6.839-.236 11.469-.886z" fill="#e6e7e8"/><g fill="none" stroke="#3e4147" stroke-linecap="round" stroke-linejoin="round" stroke-width="3.332"><path d="M191.346 186.922c-4.581 3-38.655-72.441-45.69-88.56 6.754-6.061 30.407-14.862 38.836-10.367 18.44 9.835 18.637 62.082 18.6 79.174-.024 7.853-1.441 14.994-11.746 19.753z"/><path d="M33.661 120.444q-.675-.361-1.315-.786c-7.715-5.081-37.435-31.131-29.231-37.284 9.685-7.265 30.42-11.78 40.575-6.966 14.973 7.1 22.527 11.289 38.5 3.751 20.068-9.474 34.681-21.787 57.374-26.637a210.608 210.608 0 0180.924-.91c9.239 1.77 41.016 7.38 35.835 19.986-4.562 11.1-33.707 23.9-44.951 27.369a121.279 121.279 0 01-15.974 3.7"/><path d="M149.167 106.303c-4.509.257-8.982.566-13.393 1-23.474 2.313-41.8 4.276-61.9 9.337-2.588.652-6.448 1.957-10.9 3.207M122.947 57.085c-2.8-6.34-16.021-37.082-16.43-43.39-.19-2.923 6.671-11.019 6.671-11.019 5.281-4.778 19.558 6.706 40.045 23.585 5.3 4.363 23.57 23.365 22.9 21.5M14.578 76.638s-3.022-9.847 1.733-11.9c7.993-3.447 10.371-3.941 16.888-4.086 7.032-.156 10.948 14.784 13.275 16.075"/><path d="M33.093 116.699c-.747 2.959 7.443 23.455 14.563 32.273 5.674-2.14 13.434-3.7 15.734-9.189 2.356-5.626-1.129-26.537-2.876-32.14-1.393-4.468-26.674 6.101-27.421 9.056zM148.048 22.393c5.634-3.371 13.921-3.994 18.351 1.364 3.279 3.965 12.631 16.452 3.4 18.9M200.475 118.179c7.618-2.76 14.767-5.464 17.553 4.121 1.766 6.078 4.4 17.544-.908 22.471-2.724 2.528-9.647 4.3-13.358 3.528M109.814 26.173a68.183 68.183 0 019.737-1.852c5.413-.668 6.557.8 9.9 5.213 4.727 6.238 12.161 16.235 14.115 22.591M150.797 111.201c4.115-1.207 9.492-3.929 13.569-2.046 6.516 3.009 23.755 34.511 20.815 39.407-1.557 2.593-9.614 8.213-10.927 8.747M206.616 49.286c10.886 12.244-4.211 21.988-3.577 25.45s9.539 3.5 11.063 1.885c3.607-3.814 9.585-21.417 4.407-25.542M173.193 172.533s-5.1 1.906-7.643 3.192c-9.473 4.787-28.8 12.661-28.8 12.661M163.721 158.28l-47.034 18.019M154.966 141.666l-24.817 11.041M147.943 126.336s-9.415 3.453-13.775 5.411c-7.451 3.345-14.716 7.107-22.2 10.375-1.731.756-8.761 4.145-8.761 4.145M109.725 51.931l-29.135 7.53M105.628 37.944S98.461 40.026 95.009 41a19845.347 19845.347 0 00-37.027 10.518M100.401 22.706l-26.744 7.65"/></g></svg>
